<?xml version="1.0" encoding="UTF-8" standalone="no"?>
<!-- Created with Inkscape (http://www.inkscape.org/) -->

<svg
   width="119.17634mm"
   height="164.353mm"
   viewBox="0 0 119.17634 164.353"
   version="1.1"
   id="svg1"
   inkscape:version="1.3 (0e150ed6c4, 2023-07-21)"
   sodipodi:docname="logo.svg"
   xml:space="preserve"
   xmlns:inkscape="http://www.inkscape.org/namespaces/inkscape"
   xmlns:sodipodi="http://sodipodi.sourceforge.net/DTD/sodipodi-0.dtd"
   xmlns="http://www.w3.org/2000/svg"
   xmlns:svg="http://www.w3.org/2000/svg"><sodipodi:namedview
     id="namedview1"
     pagecolor="#ffffff"
     bordercolor="#666666"
     borderopacity="1.0"
     inkscape:showpageshadow="2"
     inkscape:pageopacity="0.0"
     inkscape:pagecheckerboard="0"
     inkscape:deskcolor="#d1d1d1"
     inkscape:document-units="mm"
     inkscape:zoom="1.3545398"
     inkscape:cx="529.33107"
     inkscape:cy="656.68059"
     inkscape:window-width="3840"
     inkscape:window-height="2089"
     inkscape:window-x="-8"
     inkscape:window-y="-8"
     inkscape:window-maximized="1"
     inkscape:current-layer="layer1"
     showguides="true" /><defs
     id="defs1"><inkscape:path-effect
       effect="fillet_chamfer"
       id="path-effect41-0-3"
       is_visible="true"
       lpeversion="1"
       nodesatellites_param="F,0,0,1,0,0,0,1 @ F,0,0,1,0,0,0,1 @ F,0,0,1,0,0,0,1 @ F,0,0,1,0,0,0,1 @ F,0,0,1,0,0,0,1 @ F,0,0,1,0,0,0,1 @ F,0,0,1,0,0,0,1 @ F,0,0,1,0,0,0,1 @ F,0,0,1,0,0,0,1 @ F,0,0,1,0,0,0,1 @ F,0,0,1,0,0,0,1 @ F,0,0,1,0,0,0,1 @ F,0,0,1,0,0,0,1 @ F,0,0,1,0,0,0,1 @ F,0,0,1,0,0,0,1 @ F,0,0,1,0,0,0,1 @ F,0,0,1,0,0,0,1 @ F,0,0,1,0,0,0,1 @ F,0,0,1,0,0,0,1 @ F,0,0,1,0,0,0,1 @ F,0,0,1,0,0,0,1 @ F,0,0,1,0,0,0,1 @ F,0,0,1,0,0,0,1 @ F,0,0,1,0,0,0,1 @ F,0,0,1,0,0,0,1 @ F,0,0,1,0,0,0,1 @ F,0,0,1,0,0,0,1 @ F,0,0,1,0,0,0,1 @ F,0,0,1,0,0,0,1 @ F,0,0,1,0,0,0,1 @ F,0,0,1,0,0,0,1 @ F,0,0,1,0,0,0,1 @ F,0,0,1,0,0,0,1"
       radius="0"
       unit="px"
       method="auto"
       mode="F"
       chamfer_steps="1"
       flexible="false"
       use_knot_distance="true"
       apply_no_radius="true"
       apply_with_radius="true"
       only_selected="false"
       hide_knots="false" /><inkscape:path-effect
       effect="fillet_chamfer"
       id="path-effect41-0-3-5"
       is_visible="true"
       lpeversion="1"
       nodesatellites_param="F,0,0,1,0,0,0,1 @ F,0,0,1,0,0,0,1 @ F,0,0,1,0,0,0,1 @ F,0,0,1,0,0,0,1 @ F,0,0,1,0,0,0,1 @ F,0,0,1,0,0,0,1 @ F,0,0,1,0,0,0,1 @ F,0,0,1,0,0,0,1 @ F,0,0,1,0,0,0,1 @ F,0,0,1,0,0,0,1 @ F,0,0,1,0,0,0,1 @ F,0,0,1,0,0,0,1 @ F,0,0,1,0,0,0,1 @ F,0,0,1,0,0,0,1 @ F,0,0,1,0,0,0,1 @ F,0,0,1,0,0,0,1 @ F,0,0,1,0,0,0,1 @ F,0,0,1,0,0,0,1 @ F,0,0,1,0,0,0,1 @ F,0,0,1,0,0,0,1 @ F,0,0,1,0,0,0,1 @ F,0,0,1,0,0,0,1 @ F,0,0,1,0,0,0,1 @ F,0,0,1,0,0,0,1 @ F,0,0,1,0,0,0,1 @ F,0,0,1,0,0,0,1 @ F,0,0,1,0,0,0,1 @ F,0,0,1,0,0,0,1 @ F,0,0,1,0,0,0,1 @ F,0,0,1,0,0,0,1 @ F,0,0,1,0,0,0,1 @ F,0,0,1,0,0,0,1 @ F,0,0,1,0,0,0,1"
       radius="0"
       unit="px"
       method="auto"
       mode="F"
       chamfer_steps="1"
       flexible="false"
       use_knot_distance="true"
       apply_no_radius="true"
       apply_with_radius="true"
       only_selected="false"
       hide_knots="false" /></defs><g
     inkscape:label="Layer 1"
     inkscape:groupmode="layer"
     id="layer1"><g
       id="g41"
       transform="translate(-5.7639775,-11.618425)"><path
         style="fill:#00aa44"
         d="m 44.326643,53.464175 c 2.020185,-3.734412 11.102965,-19.656079 16.563975,-24.01551 3.60236,-2.875724 4.40801,-3.127685 2.60033,-0.813227 -1.28037,1.639344 -4.41321,7.426494 -4.23086,7.815476 0.0352,0.07517 0.87934,-0.775073 1.87606,-1.888793 6.3933,-7.143023 12.75581,-10.290193 20.47813,-10.129575 3.53029,0.07347 3.58845,0.121773 0.96744,0.802302 -2.48471,0.645257 -8.71043,3.928756 -10.15788,5.357291 l -1.09373,1.079455 2.67338,-0.969856 c 13.50908,-4.901096 26.626612,-0.671068 32.359532,10.435084 1.34086,2.597583 1.54524,3.147079 0.86367,2.321527 -3.29843,-3.994959 -9.626102,-7.681129 -15.164932,-8.834168 -1.99148,-0.414676 -1.98257,-0.133116 0.0454,1.438662 2.02295,1.567944 4.80979,5.15256 6.03118,7.757776 0.94497,2.015598 0.64496,2.200097 -1.0499,0.645686 -3.36179,-3.083344 -12.35525,-7.123159 -17.6353,-7.921722 -3.49529,-0.528574 -3.91988,-0.329513 -1.4515,0.680501 3.99683,1.635431 6.41505,3.376801 8.99249,6.475445 l 1.33859,1.609286 -4.4408,-1.570455 c -7.66801,-2.711608 -15.43835,-3.760661 -19.21046,-2.593664 l -1.58192,0.489512 2.29766,0.178542 c 2.68069,0.208469 5.76169,1.207153 8.09768,2.624939 2.27475,1.380659 2.24119,1.58282 -0.21671,1.303404 -4.88592,-0.555496 -12.85749,0.429737 -16.21554,2.004112 -1.8224,0.854371 -1.607,1.032185 0.94139,0.776959 1.02052,-0.102158 3.10045,-0.01359 4.62208,0.196879 l 2.76661,0.382712 -1.77162,0.514171 c -8.25452,3.414079 -16.19814,7.550009 -24.088699,11.730349 0,0 2.773844,-4.14863 4.794036,-7.88306 z"
         id="path41-2-6-1-9-3-7-9-8"
         sodipodi:nodetypes="zssscssscsssssssssscsscsssssscscz"
         inkscape:transform-center-x="-34.45701"
         inkscape:transform-center-y="-19.560323" /><path
         style="fill:#00aa44"
         d="m 334.27679,-1014.7707 c 16.69726,3.5352 28.26832,10.2307 32.70304,18.92347 l 0.74349,1.4574 -2.02812,-1.8536 c -2.75425,-2.5173 -11.72269,-7.06087 -13.05829,-6.61567 -0.219,0.073 0.48071,0.7165 1.5549,1.4299 7.57261,5.02947 12.62542,10.95377 14.5333,17.03997 0.88691,2.8292 1.51752,8.0179 1.06773,8.7854 -0.27073,0.462 -0.32447,0.4432 -0.33377,-0.1167 -0.0285,-1.7165 -2.96249,-6.5827 -6.37345,-10.5708 -2.60665,-3.0477 -3.53872,-3.4531 -2.11417,-0.9196 6.99982,12.449 4.3826,26.8793 -6.22831,34.3404 -3.22323,2.2665 -3.52769,2.3604 -1.8089,0.5581 0.84008,-0.8809 2.01158,-2.5857 2.60332,-3.7884 2.50089,-5.0832 4.74612,-16.5397 2.3516,-11.9993 -1.09422,2.0749 -5.44694,6.3221 -7.79405,7.6051 -1.95505,1.0688 -1.9604,1.0695 -1.38805,0.1823 3.88438,-6.0212 6.52666,-14.6276 6.52666,-21.2584 0,-3.7567 -0.46525,-4.2781 -1.10931,-1.2432 -0.56952,2.6837 -3.13583,7.9862 -4.72645,9.7657 l -1.14022,1.2756 0.22287,-1.3592 c 1.40293,-8.5557 1.12063,-16.8038 -0.7698,-22.4917 -1.41904,-4.2696 -1.57553,-4.23 -1.35302,0.3427 0.2165,4.4492 -0.27994,7.9414 -1.53138,10.7726 l -0.63519,1.4371 -0.45078,-2.9157 c -0.98776,-6.3892 -3.10293,-13.3681 -5.48733,-18.10517 -1.10231,-2.19 -2.46081,-3.923 -1.87163,-2.3877 0.93358,2.4329 1.88047,9.60387 1.47359,11.15977 -0.19296,0.7379 -0.34124,0.5537 -1.03106,-1.2807 -2.0627,-5.48537 -8.71298,-15.04757 -9.65526,-16.17467 -0.94228,-1.1271 -3.73594,-4.0731 -3.73594,-4.0731 3.68224,0.3758 7.24755,1.2899 10.84398,2.0781 z"
         id="path41-2-6-1-1-9-9-7"
         sodipodi:nodetypes="cscsscsssssssssssssscsssscssssszcc"
         inkscape:path-effect="#path-effect41-0-3-5"
         inkscape:original-d="m 334.27679,-1014.7707 c 16.69726,3.5352 28.26832,10.2307 32.70304,18.92347 l 0.74349,1.4574 -2.02812,-1.8536 c -2.75425,-2.5173 -11.72269,-7.06087 -13.05829,-6.61567 -0.219,0.073 0.48071,0.7165 1.5549,1.4299 7.57261,5.02947 12.62542,10.95377 14.5333,17.03997 0.88691,2.8292 1.51752,8.0179 1.06773,8.7854 -0.27073,0.462 -0.32447,0.4432 -0.33377,-0.1167 -0.0285,-1.7165 -2.96249,-6.5827 -6.37345,-10.5708 -2.60665,-3.0477 -3.53872,-3.4531 -2.11417,-0.9196 6.99982,12.449 4.3826,26.8793 -6.22831,34.3404 -3.22323,2.2665 -3.52769,2.3604 -1.8089,0.5581 0.84008,-0.8809 2.01158,-2.5857 2.60332,-3.7884 2.50089,-5.0832 4.74612,-16.5397 2.3516,-11.9993 -1.09422,2.0749 -5.44694,6.3221 -7.79405,7.6051 -1.95505,1.0688 -1.9604,1.0695 -1.38805,0.1823 3.88438,-6.0212 6.52666,-14.6276 6.52666,-21.2584 0,-3.7567 -0.46525,-4.2781 -1.10931,-1.2432 -0.56952,2.6837 -3.13583,7.9862 -4.72645,9.7657 l -1.14022,1.2756 0.22287,-1.3592 c 1.40293,-8.5557 1.12063,-16.8038 -0.7698,-22.4917 -1.41904,-4.2696 -1.57553,-4.23 -1.35302,0.3427 0.2165,4.4492 -0.27994,7.9414 -1.53138,10.7726 l -0.63519,1.4371 -0.45078,-2.9157 c -0.98776,-6.3892 -3.10293,-13.3681 -5.48733,-18.10517 -1.10231,-2.19 -2.46081,-3.923 -1.87163,-2.3877 0.93358,2.4329 1.88047,9.60387 1.47359,11.15977 -0.19296,0.7379 -0.34124,0.5537 -1.03106,-1.2807 -2.0627,-5.48537 -8.71298,-15.04757 -9.65526,-16.17467 -0.94228,-1.1271 -3.73594,-4.0731 -3.73594,-4.0731 3.68224,0.3758 7.24755,1.2899 10.84398,2.0781 z"
         transform="rotate(-34.301643,1929.8009,-14.8258)" /><path
         style="fill:#005522"
         d="m 37.574397,60.032495 c 0.23529,-1.5297 0.6546,-3.2803 0.6546,-3.2803 0.36004,-1.8041 1.10575,-5.986403 1.65714,-9.293903 1.27492,-7.6477 2.41135,-11.8892 4.07633,-15.214 1.541611,-3.0784 1.751971,-3.1206 1.22032,-0.2447 -0.44404,2.4021 -0.45647,6.0933 -0.0251,7.4404 0.266951,0.8335 0.294901,0.8441 0.328141,0.1243 0.31138,-6.7436 4.74455,-16.2165 9.62458,-20.566 1.97265,-1.7582 3.09682,-2.4094 1.99054,-1.1531 -1.01006,1.1471 -2.44048,4.362 -3.37378,7.5826 -1.25426,4.3282 -1.14259,4.7872 0.45676,1.8776 3.99785,-7.2731 8.58631,-11.3102 15.15818,-13.3367 3.68477,-1.1362 4.46703,-0.9959 2.07972,0.373 -1.8715,1.0731 -7.67625,6.4728 -7.67625,7.1405 0,0.1704 1.42391,-0.3873 3.16424,-1.2394 9.12508,-4.4677 19.14431,-3.5689 26.22862,2.3529 2.13442,1.7841 2.2019,2.2769 0.18118,1.323 -2.62994,-1.2415 -6.57126,-1.9749 -10.5114,-1.9561 l -3.57274,0.017 1.7522,0.6846 c 2.81108,1.0983 6.14358,3.9617 7.69714,6.6135 l 0.70209,1.1984 -1.2488,-0.7297 c -4.67046,-2.7291 -15.43335,-4.9664 -19.1506,-3.981 -0.95859,0.2541 -0.85473,0.3197 1.18658,0.7493 2.70955,0.5703 5.64031,1.9605 7.59785,3.6041 l 1.4522,1.2193 -2.18114,-0.3579 c -5.85974,-0.9616 -16.05268,0.5311 -18.52364,2.7127 l -0.78751,0.6953 0.91117,-0.1873 c 2.64683,-0.5439 4.84665,-0.6188 7.46089,-0.2539 3.72314,0.5196 4.01602,0.8614 1.23116,1.4366 -4.79104,0.9895 -10.32581,3.6683 -15.2573,7.3843 -3.16996,2.3886 -3.81618,3.318 -1.36194,1.9588 1.94167,-1.0753 5.64519,-2.2555 8.38277,-2.6713 2.00911,-0.3051 2.88293,0 1.37157,0.481 -2.479,0.7868 -9.96978,6.6816 -14.3413,11.285703 -2.992781,3.152 -6.186931,7.813 -6.406761,8.3501 -0.21983,0.5371 -2.78967,3.7669 -2.78967,3.7669 0,0 0.40667,-4.3769 0.64196,-5.9066 z"
         id="path41-2-6-1-2-4-0"
         sodipodi:nodetypes="zssssssssssssssssscsscsssscsscsssssscszcz" /><path
         style="fill:#005522"
         d="m 47.765938,62.236325 c 4.19193,-0.67435 22.35048,-3.17707 29.13499,-1.50441 4.47541,1.10334 5.16619,1.58852 2.22955,1.56593 -2.08006,-0.016 -8.57754,1.02732 -8.77478,1.40897 -0.0381,0.0737 1.15041,0.22472 2.64085,0.33622 9.55956,0.71529 15.93241,3.84149 20.51154,10.06174 2.09334,2.84364 2.09052,2.91917 -0.0465,1.25598 -2.0259,-1.57664 -8.42346,-4.51131 -10.43819,-4.78825 l -1.52233,-0.20972 2.39824,1.5284 c 12.11895,7.72315 16.760002,20.70095 11.4489,32.014865 -1.24218,2.64616 -1.55326,3.1431 -1.31415,2.0996 1.15697,-5.04981 0.22291,-12.313035 -2.23865,-17.407025 -0.88501,-1.8316 -1.10277,-1.65293 -1.1129,0.91283 -0.0102,2.55943 -1.15363,6.95356 -2.47466,9.50966 -1.02206,1.977605 -1.35121,1.852185 -1.15179,-0.43886 0.39561,-4.54445 -1.88274,-14.13668 -4.46764,-18.80948 -1.7112,-3.09325 -2.12779,-3.30856 -1.42415,-0.73602 1.13932,4.16548 1.23256,7.14398 0.34679,11.0759 l -0.46003,2.04204 -1.46144,-4.47784 c -2.52361,-7.73196 -6.42765,-14.53174 -9.65183,-16.8111 l -1.3522,-0.95583 1.25877,1.93044 c 1.46851,2.25235 2.55449,5.30366 2.85416,8.01976 0.29179,2.64491 0.11106,2.7415 -1.16531,0.62277 -2.5374,-4.21217 -8.17689,-9.93167 -11.47168,-11.63447 -1.78805,-0.92409 -1.79775,-0.64497 -0.0422,1.2199 0.70297,0.7468 1.9004,2.44977 2.6609,3.78443 l 1.38274,2.42663 -1.48738,-1.09121 c -7.73756,-4.46356 -15.85792,-8.24065 -23.981146,-11.94865 0,0 4.979631,-0.32929 9.171566,-1.00365 z"
         id="path41-2-6-1-9-3-7"
         sodipodi:nodetypes="zssscssscsssssssssscsscsssssscscz" /><path
         style="fill:#002b11"
         d="m 40.435706,55.136175 c 1.346252,-4.026724 7.548652,-21.275659 12.176492,-26.51115 3.05275,-3.453619 3.80292,-3.84068 2.42123,-1.249271 -0.97864,1.835504 -3.06705,8.076037 -2.82038,8.427765 0.0476,0.06799 0.73257,-0.91504 1.52241,-2.183898 5.06636,-8.138116 10.79117,-12.334884 18.42559,-13.507762 3.49011,-0.536146 3.55573,-0.498589 1.09125,0.623537 -2.33629,1.063886 -7.90286,5.371365 -9.08241,7.028014 l -0.89129,1.251822 2.46619,-1.416149 c 12.46208,-7.156289 26.1124,-5.250635 33.67386,4.701066 1.768532,2.327564 2.064562,2.833611 1.250902,2.137901 -3.937672,-3.366588 -10.806002,-5.906868 -16.460672,-6.087926 -2.03315,-0.0652 -1.97584,0.210611 0.2927,1.409304 2.26294,1.195778 5.62593,4.246359 7.2781,6.602034 1.27824,1.822534 1.0145,2.056 -0.92289,0.816987 -3.84294,-2.457704 -13.39812,-4.886835 -18.73679,-4.763326 -3.53409,0.08182 -3.91801,0.351087 -1.31247,0.920507 4.2189,0.922022 6.90109,2.220499 9.97405,4.82847 l 1.59594,1.354456 -4.64502,-0.781474 c -8.02063,-1.349274 -15.85549,-1.043256 -19.36999,0.756472 l -1.47387,0.754855 2.29404,-0.220175 c 2.67651,-0.256723 5.88353,0.195946 8.42894,1.189843 2.47868,0.967888 2.48047,1.172814 0.0112,1.321247 -4.90854,0.295013 -12.59096,2.639561 -15.62739,4.769188 -1.64785,1.155714 -1.40503,1.293734 1.06123,0.603057 0.98764,-0.276537 3.0517,-0.547817 4.58683,-0.602777 l 2.79116,-0.0999 -1.65648,0.811827 c -7.5425,4.785796 -14.654281,10.229036 -21.706169,15.706886 0,0 2.017233,-4.56464 3.363488,-8.59138 z"
         id="path41-2-6-1-9-3-7-9"
         sodipodi:nodetypes="zssscssscsssssssssscsscsssssscscz" /><path
         style="fill:#002b11"
         d="m 334.27679,-1014.7707 c 16.69726,3.5352 28.26832,10.2307 32.70304,18.92347 l 0.74349,1.4574 -2.02812,-1.8536 c -2.75425,-2.5173 -11.72269,-7.06087 -13.05829,-6.61567 -0.219,0.073 0.48071,0.7165 1.5549,1.4299 7.57261,5.02947 12.62542,10.95377 14.5333,17.03997 0.88691,2.8292 1.51752,8.0179 1.06773,8.7854 -0.27073,0.462 -0.32447,0.4432 -0.33377,-0.1167 -0.0285,-1.7165 -2.96249,-6.5827 -6.37345,-10.5708 -2.60665,-3.0477 -3.53872,-3.4531 -2.11417,-0.9196 6.99982,12.449 4.3826,26.8793 -6.22831,34.3404 -3.22323,2.2665 -3.52769,2.3604 -1.8089,0.5581 0.84008,-0.8809 2.01158,-2.5857 2.60332,-3.7884 2.50089,-5.0832 4.74612,-16.5397 2.3516,-11.9993 -1.09422,2.0749 -5.44694,6.3221 -7.79405,7.6051 -1.95505,1.0688 -1.9604,1.0695 -1.38805,0.1823 3.88438,-6.0212 6.52666,-14.6276 6.52666,-21.2584 0,-3.7567 -0.46525,-4.2781 -1.10931,-1.2432 -0.56952,2.6837 -3.13583,7.9862 -4.72645,9.7657 l -1.14022,1.2756 0.22287,-1.3592 c 1.40293,-8.5557 1.12063,-16.8038 -0.7698,-22.4917 -1.41904,-4.2696 -1.57553,-4.23 -1.35302,0.3427 0.2165,4.4492 -0.27994,7.9414 -1.53138,10.7726 l -0.63519,1.4371 -0.45078,-2.9157 c -0.98776,-6.3892 -3.10293,-13.3681 -5.48733,-18.10517 -1.10231,-2.19 -2.46081,-3.923 -1.87163,-2.3877 0.93358,2.4329 1.88047,9.60387 1.47359,11.15977 -0.19296,0.7379 -0.34124,0.5537 -1.03106,-1.2807 -2.0627,-5.48537 -8.71298,-15.04757 -9.65526,-16.17467 -0.94228,-1.1271 -2.79962,-3.7814 -2.79962,-3.7814 3.68224,0.3758 6.31123,0.9982 9.90766,1.7864 z"
         id="path41-2-6-1-1-9-9"
         sodipodi:nodetypes="cscsscsssssssssssssscsssscssssszcc"
         inkscape:path-effect="#path-effect41-0-3"
         inkscape:original-d="m 334.27679,-1014.7707 c 16.69726,3.5352 28.26832,10.2307 32.70304,18.92347 l 0.74349,1.4574 -2.02812,-1.8536 c -2.75425,-2.5173 -11.72269,-7.06087 -13.05829,-6.61567 -0.219,0.073 0.48071,0.7165 1.5549,1.4299 7.57261,5.02947 12.62542,10.95377 14.5333,17.03997 0.88691,2.8292 1.51752,8.0179 1.06773,8.7854 -0.27073,0.462 -0.32447,0.4432 -0.33377,-0.1167 -0.0285,-1.7165 -2.96249,-6.5827 -6.37345,-10.5708 -2.60665,-3.0477 -3.53872,-3.4531 -2.11417,-0.9196 6.99982,12.449 4.3826,26.8793 -6.22831,34.3404 -3.22323,2.2665 -3.52769,2.3604 -1.8089,0.5581 0.84008,-0.8809 2.01158,-2.5857 2.60332,-3.7884 2.50089,-5.0832 4.74612,-16.5397 2.3516,-11.9993 -1.09422,2.0749 -5.44694,6.3221 -7.79405,7.6051 -1.95505,1.0688 -1.9604,1.0695 -1.38805,0.1823 3.88438,-6.0212 6.52666,-14.6276 6.52666,-21.2584 0,-3.7567 -0.46525,-4.2781 -1.10931,-1.2432 -0.56952,2.6837 -3.13583,7.9862 -4.72645,9.7657 l -1.14022,1.2756 0.22287,-1.3592 c 1.40293,-8.5557 1.12063,-16.8038 -0.7698,-22.4917 -1.41904,-4.2696 -1.57553,-4.23 -1.35302,0.3427 0.2165,4.4492 -0.27994,7.9414 -1.53138,10.7726 l -0.63519,1.4371 -0.45078,-2.9157 c -0.98776,-6.3892 -3.10293,-13.3681 -5.48733,-18.10517 -1.10231,-2.19 -2.46081,-3.923 -1.87163,-2.3877 0.93358,2.4329 1.88047,9.60387 1.47359,11.15977 -0.19296,0.7379 -0.34124,0.5537 -1.03106,-1.2807 -2.0627,-5.48537 -8.71298,-15.04757 -9.65526,-16.17467 -0.94228,-1.1271 -2.79962,-3.7814 -2.79962,-3.7814 3.68224,0.3758 6.31123,0.9982 9.90766,1.7864 z"
         transform="rotate(-13.975495,4586.7899,694.19448)" /><path
         style="fill:#000000;stroke-width:0.784305"
         d="m 39.019002,174.01275 c 5.508349,-6.37989 7.789686,-9.25113 11.903676,-14.98168 2.45923,-3.42557 2.61427,-3.8574 0.8605,-2.39674 -10.135185,8.44126 -25.94923,11.52398 -40.170075,7.83056 -4.1462394,-1.07685 -5.2348864,-1.4961 -3.4061454,-1.31173 4.0882324,0.41214 5.3626814,0.43416 8.8614914,0.15309 10.479913,-0.84188 17.681687,-3.41694 28.013743,-10.01658 5.744186,-3.66912 9.055996,-4.84581 13.649546,-4.84971 7.24436,-0.005 6.34617,1.6333 14.3779,3.02413 2.72084,0.47116 4.12572,0.35651 4.12572,0.35651 16.51116,1.42673 33.623662,6.72801 44.984212,13.93566 2.73452,1.73491 2.81032,1.88498 0.40914,0.81003 -20.9053,-9.35871 -49.495072,-7.82609 -59.815552,3.20655 -1.90013,2.03124 -1.94347,1.96419 -0.72215,-1.1175 1.57473,-3.9734 5.48419,-8.63433 8.80289,-10.49494 2.11393,-1.18517 2.01007,-1.24195 -1.25132,-0.68414 -8.12454,1.38958 -11.79769,3.24303 -23.36765,11.79112 -3.564396,2.63343 -6.930933,5.0983 -7.481203,5.47747 l -1.00049,0.68941 z"
         id="path41-6-6-6"
         sodipodi:nodetypes="cssssssczssssssssscc" /><path
         style="fill:#000000"
         d="m 44.793053,156.63433 c -0.01905,-0.0887 -0.774535,-0.64087 -2.185284,-3.8843 -10.987221,-25.26048 -12.835936,-61.913395 -5.820395,-88.839775 0,0 -0.542804,-1.35038 0.582675,-2.26746 1.125478,-0.91708 2.017943,-0.10507 2.017943,-0.10507 2.088312,1.90631 1.038105,2.53944 -0.540437,3.83196 -0.70711,4.81271 -1.856998,13.10318 -1.903917,18.59088 -0.253267,29.622535 6.986399,53.724365 21.82967,72.673765 z"
         id="path41-2-1"
         sodipodi:nodetypes="csczccscc" /></g></g></svg>
